<svg width="84" height="100" viewBox="0 0 84 100" fill="none" xmlns="http://www.w3.org/2000/svg">
<path d="M56.1352 12.3568C55.139 5.31266 49.0616 0 41.9993 0C37.4575 0 33.144 2.21117 30.4621 5.91697C29.9144 6.67273 30.0782 7.73287 30.8273 8.28554C31.574 8.83622 32.6272 8.67285 33.1741 7.9161C35.2269 5.08225 38.5255 3.38999 41.9988 3.38999C47.4 3.38999 52.0466 7.45083 52.8085 12.835C52.9286 13.6806 53.6477 14.2909 54.4701 14.2909C54.5484 14.2909 54.6291 14.2849 54.7093 14.274C55.6277 14.1414 56.2661 13.2829 56.1352 12.3568Z" fill="#38BDA5"/>
<path d="M80.3991 31.3307L75.3592 22.856C75.056 22.345 74.5092 22.0332 73.9185 22.0332H69.0888C68.1615 22.0332 67.409 22.7924 67.409 23.7279C67.409 24.6635 68.1615 25.4227 69.0888 25.4227H72.9677L75.9916 30.5074H8.00651L11.0305 25.4227H12.8097C13.7369 25.4227 14.4895 24.6635 14.4895 23.7279C14.4895 22.7924 13.7369 22.0332 12.8097 22.0332H10.0796C9.48895 22.0332 8.94214 22.345 8.63896 22.856L3.59905 31.3307C3.2875 31.8551 3.28012 32.5071 3.57789 33.0384C3.87566 33.5697 4.43379 33.8984 5.03966 33.8984H78.9585C79.5643 33.8984 80.122 33.5697 80.4202 33.0384C80.7185 32.5071 80.7106 31.8541 80.3991 31.3307Z" fill="#38BDA5"/>
<path d="M72.0251 15.7026C71.7899 15.3198 71.4143 15.0481 70.9802 14.9459L48.0787 9.54183C47.6451 9.43904 47.1883 9.51551 46.8094 9.75187C46.4314 9.98923 46.1617 10.3681 46.0603 10.8061L44.3332 18.2544C44.1216 19.1656 44.6827 20.0773 45.5863 20.2898C46.4894 20.5033 47.3941 19.9372 47.6047 19.0256L48.9494 13.2283L68.5789 17.8606L65.4944 31.1659C65.2828 32.077 65.8439 32.9887 66.7475 33.2013C66.877 33.2315 67.0054 33.2459 67.1324 33.2459C67.8953 33.2459 68.5858 32.7186 68.7654 31.9375L72.2328 16.9822C72.3352 16.5448 72.2604 16.084 72.0251 15.7026Z" fill="#38BDA5"/>
<path d="M42.8877 19.7093L41.357 6.6474C41.3048 6.201 41.0789 5.79332 40.7285 5.51525C40.3781 5.23718 39.9356 5.11006 39.4912 5.1627L11.3927 8.51346C10.4718 8.6237 9.8133 9.46585 9.92207 10.3959L12.474 32.1813C12.5754 33.0438 13.3004 33.6779 14.1405 33.6779C14.206 33.6779 14.2734 33.6735 14.3404 33.666C15.2607 33.5558 15.9193 32.7136 15.811 31.7836L13.4559 11.68L38.2179 8.72748L39.5507 20.1061C39.66 21.0356 40.4908 21.696 41.4166 21.5908C42.3374 21.4815 42.996 20.6389 42.8877 19.7093Z" fill="#38BDA5"/>
<path d="M56.174 31.5591L52.8395 17.5692C52.7352 17.1327 52.463 16.7548 52.0835 16.5199C51.7041 16.2871 51.2488 16.2141 50.8132 16.3183L23.7498 22.8848C22.8477 23.1033 22.2925 24.0189 22.509 24.9291L24.1756 31.9216C24.3921 32.8328 25.2997 33.3934 26.2014 33.1734C27.1035 32.955 27.6587 32.0393 27.4421 31.1291L26.1679 25.7842L49.9647 20.0112L52.9065 32.3526C53.091 33.1297 53.7801 33.6511 54.5385 33.6511C54.669 33.6511 54.8009 33.6357 54.9333 33.6035C55.8354 33.3845 56.3906 32.4693 56.174 31.5591Z" fill="#38BDA5"/>
<path d="M80.6378 32.1168C80.5915 31.216 79.8542 30.5089 78.9594 30.5089H5.04064C4.14586 30.5089 3.40858 31.2155 3.36232 32.1168L0.00221288 98.2184C-0.0214117 98.6822 0.144945 99.136 0.461908 99.4727C0.779363 99.8088 1.21937 100 1.68005 100H82.3186C82.7787 100 83.2192 99.8093 83.5382 99.4727C83.8546 99.136 84.021 98.6826 83.9979 98.2184L80.6378 32.1168ZM3.44795 96.61L6.63579 33.8984H77.3623L80.5502 96.61H3.44795Z" fill="#38BDA5"/>
<path d="M54.5991 37.2879C51.8197 37.2879 49.5592 39.5686 49.5592 42.3726C49.5592 45.1767 51.8197 47.4574 54.5991 47.4574C57.3784 47.4574 59.639 45.1767 59.639 42.3726C59.639 39.5686 57.3784 37.2879 54.5991 37.2879ZM54.5991 44.0679C53.6723 44.0679 52.9193 43.3077 52.9193 42.3731C52.9193 41.4386 53.6728 40.6784 54.5991 40.6784C55.5254 40.6784 56.2789 41.4386 56.2789 42.3731C56.2789 43.3077 55.5254 44.0679 54.5991 44.0679Z" fill="#38BDA5"/>
<path d="M29.3995 37.2879C26.6202 37.2879 24.3596 39.5686 24.3596 42.3726C24.3596 45.1767 26.6202 47.4574 29.3995 47.4574C32.1789 47.4574 34.4394 45.1767 34.4394 42.3726C34.4394 39.5686 32.1789 37.2879 29.3995 37.2879ZM29.3995 44.0679C28.4733 44.0679 27.7197 43.3077 27.7197 42.3731C27.7197 41.4386 28.4733 40.6784 29.3995 40.6784C30.3258 40.6784 31.0793 41.4386 31.0793 42.3731C31.0793 43.3077 30.3258 44.0679 29.3995 44.0679Z" fill="#38BDA5"/>
<path d="M54.5991 42.3726H54.4696C53.5424 42.3726 52.7898 43.1319 52.7898 44.0674C52.7898 44.2988 52.8351 44.5198 52.9193 44.7209V53.3892C52.9193 59.4636 48.0206 64.4063 41.9993 64.4063C35.978 64.4063 31.0793 59.4641 31.0793 53.3892V44.0679C31.0793 43.1324 30.3268 42.3731 29.3995 42.3731C28.4723 42.3731 27.7197 43.1324 27.7197 44.0679V53.3897C27.7197 61.3337 34.1254 67.7963 41.9993 67.7963C49.8732 67.7963 56.2789 61.3337 56.2789 53.3897V44.0679C56.2789 43.1324 55.5263 42.3726 54.5991 42.3726Z" fill="#38BDA5"/>
</svg>
