<svg width="99" height="100" viewBox="0 0 99 100" fill="none" xmlns="http://www.w3.org/2000/svg">
<path d="M98.3492 0.488528C97.6975 -0.163168 96.6441 -0.163168 95.9924 0.488528L89.8121 6.66714H51.007L2.22146 55.8544C1.10974 56.9645 0.498047 58.4429 0.498047 60.0129C0.498047 61.583 1.10974 63.0614 2.22146 64.1714L36.333 98.283C37.4781 99.4281 38.9798 99.9998 40.4849 99.9998C41.9949 99.9998 43.5084 99.4231 44.6651 98.2663L92.1689 49.4791V9.02392L98.3475 2.8453C98.9992 2.19361 98.9992 1.14022 98.3492 0.488528ZM88.8371 48.1257L42.2933 95.9262C41.3016 96.9196 39.6848 96.9196 38.6898 95.9262L4.57823 61.8147C4.09655 61.333 3.83153 60.693 3.83153 60.0129C3.83153 59.3329 4.09654 58.6929 4.58323 58.2062L52.3954 10.0006H86.4803L78.4249 18.056C77.1065 17.1826 75.5315 16.6676 73.8364 16.6676C69.2412 16.6676 65.5027 20.4061 65.5027 25.0013C65.5027 29.5965 69.2412 33.335 73.8364 33.335C78.4316 33.335 82.1701 29.5965 82.1701 25.0013C82.1701 23.3062 81.6551 21.7312 80.7817 20.4128L88.8371 12.3574V48.1257ZM78.8366 25.0013C78.8366 27.7581 76.5932 30.0015 73.8364 30.0015C71.0796 30.0015 68.8362 27.7581 68.8362 25.0013C68.8362 22.2445 71.0796 20.0011 73.8364 20.0011C74.6064 20.0011 75.3265 20.1911 75.9782 20.5028L72.658 23.8229C72.0063 24.4746 72.0063 25.528 72.658 26.1797C72.983 26.5047 73.4097 26.6681 73.8364 26.6681C74.2631 26.6681 74.6898 26.5047 75.0148 26.1797L78.3349 22.8596C78.6466 23.5112 78.8366 24.2313 78.8366 25.0013Z" fill="#38BDA5"/>
<path d="M67.0244 35.2201C67.6761 34.5684 67.6761 33.515 67.0244 32.8633C66.3727 32.2116 65.3193 32.2116 64.6676 32.8633L63.4243 34.1067C60.4458 31.7233 56.6656 30.5516 52.8071 30.8783C50.1186 31.1033 47.6852 32.4017 45.9551 34.5334C44.175 36.7285 43.3533 39.5987 43.705 42.4071L44.9734 52.5576L30.0611 67.4699C26.6442 62.9031 26.9976 56.3911 31.1445 52.2426C31.7961 51.5909 31.7961 50.5375 31.1445 49.8858C30.4928 49.2341 29.4394 49.2341 28.7877 49.8858C23.3374 55.336 22.9707 63.9681 27.6793 69.8517L25.7759 71.7551C25.1242 72.4068 25.1242 73.4602 25.7759 74.1119C26.1009 74.4369 26.5276 74.6003 26.9543 74.6003C27.3809 74.6003 27.8076 74.4369 28.1326 74.1119L30.0377 72.2068C32.6929 74.3286 35.9813 75.4936 39.3898 75.4936C39.8082 75.4936 40.2282 75.4753 40.6499 75.4403C43.3383 75.2169 45.7718 73.9202 47.5019 71.7868C49.2836 69.5917 50.1053 66.7199 49.7536 63.9114L48.4852 53.761L63.3976 38.8486C66.8127 43.4155 66.4611 49.9291 62.3125 54.0776C61.6608 54.7293 61.6608 55.7827 62.3125 56.4344C62.9642 57.0861 64.0176 57.0861 64.6693 56.4344C70.1196 50.9825 70.4846 42.3504 65.7777 36.4668L67.0244 35.2201ZM46.4418 64.3265C46.6818 66.2382 46.1235 68.1916 44.9101 69.6884C43.7567 71.1101 42.145 71.9735 40.3699 72.1218C37.5064 72.3468 34.6896 71.5234 32.4178 69.8284L45.4951 56.7494L46.4418 64.3265ZM47.0102 41.9938C46.7702 40.0837 47.3285 38.1286 48.5402 36.6335C49.6936 35.2118 51.307 34.3484 53.0821 34.1984C55.9456 33.9634 58.764 34.7951 61.0358 36.4918L47.9569 49.5708L47.0102 41.9938Z" fill="#38BDA5"/>
</svg>
