<svg width="13" height="16" viewBox="0 0 13 16" fill="none" xmlns="http://www.w3.org/2000/svg">
<path d="M11.1653 5.60373L6.98345 12.8469C6.17981 14.2388 4.4015 14.7153 3.00956 13.9117C1.61762 13.108 1.14112 11.3297 1.94475 9.93776L6.49021 2.0648C6.99203 1.19563 8.10472 0.897482 8.97389 1.3993C9.84307 1.90112 10.1412 3.01381 9.63939 3.88298L5.82121 10.4963C5.62121 10.8427 5.17415 10.9625 4.82774 10.7625C4.48133 10.5625 4.36154 10.1154 4.56154 9.769L8.01608 3.78555L7.07133 3.24009L3.61678 9.22354C3.11496 10.0927 3.41311 11.2054 4.28228 11.7072C5.15146 12.209 6.26415 11.9109 6.76597 11.0417L10.5841 4.42844C11.3878 3.0365 10.9113 1.25818 9.51935 0.454545C8.12741 -0.349091 6.34909 0.127408 5.54545 1.51935L1 9.3923C-0.105455 11.307 0.549398 13.751 2.4641 14.8564C4.37881 15.9619 6.82275 15.307 7.9282 13.3923L12.11 6.14918L11.1653 5.60373Z" fill="#595959"/>
</svg>
