<svg width="15" height="15" viewBox="0 0 15 15" fill="none" xmlns="http://www.w3.org/2000/svg">
<path d="M6.66667 11.6667C6.66667 12.125 7.04167 12.5 7.5 12.5C7.95833 12.5 8.33333 12.125 8.33333 11.6667C8.33333 11.2083 7.95833 10.8333 7.5 10.8333C7.04167 10.8333 6.66667 11.2083 6.66667 11.6667ZM6.66667 0V3.33333H8.33333V1.73333C11.1583 2.14167 13.3333 4.55833 13.3333 7.5C13.3333 10.725 10.725 13.3333 7.5 13.3333C4.275 13.3333 1.66667 10.725 1.66667 7.5C1.66667 6.1 2.15833 4.81667 2.98333 3.81667L7.5 8.33333L8.675 7.15833L3.00833 1.49167V1.50833C1.18333 2.875 0 5.04167 0 7.5C0 11.6417 3.35 15 7.5 15C11.6417 15 15 11.6417 15 7.5C15 3.35833 11.6417 0 7.5 0H6.66667ZM12.5 7.5C12.5 7.04167 12.125 6.66667 11.6667 6.66667C11.2083 6.66667 10.8333 7.04167 10.8333 7.5C10.8333 7.95833 11.2083 8.33333 11.6667 8.33333C12.125 8.33333 12.5 7.95833 12.5 7.5ZM2.5 7.5C2.5 7.95833 2.875 8.33333 3.33333 8.33333C3.79167 8.33333 4.16667 7.95833 4.16667 7.5C4.16667 7.04167 3.79167 6.66667 3.33333 6.66667C2.875 6.66667 2.5 7.04167 2.5 7.5Z" fill="white"/>
</svg>
