<svg width="60" height="80" viewBox="0 0 60 80" fill="none" xmlns="http://www.w3.org/2000/svg">
<path d="M8.23164 16.2237C7.24058 17.2132 6.69474 18.529 6.69474 19.9285C6.69474 21.3279 7.24058 22.6437 8.23164 23.6332C9.22269 24.6228 10.5405 25.1678 11.942 25.1678C13.3436 25.1678 14.6614 24.6228 15.6524 23.6332C16.6435 22.6437 17.1893 21.3281 17.1893 19.9285C17.1893 18.529 16.6435 17.2134 15.6524 16.2238C13.6066 14.181 10.2776 14.1812 8.23164 16.2237ZM14.8421 19.9285C14.8421 20.702 14.5406 21.4292 13.9928 21.976C13.4451 22.5229 12.717 22.8242 11.9422 22.8242C11.1676 22.8242 10.4394 22.5229 9.89153 21.9759C9.34381 21.4292 9.04226 20.7021 9.04226 19.9285C9.04226 19.1551 9.34381 18.4279 9.89153 17.881C11.0222 16.7523 12.8619 16.752 13.9927 17.8813C14.5406 18.4279 14.8421 19.1549 14.8421 19.9285Z" fill="#38BDA5"/>
<path d="M59.8504 72.0667C59.1529 70.3104 58.1562 67.0311 57.3692 61.3821C57.2799 60.741 56.6864 60.2926 56.045 60.3827C55.4029 60.472 54.9549 61.0638 55.0441 61.7049C55.8024 67.1476 56.7669 70.5254 57.4971 72.4855L54.0663 71.5647C52.9064 71.2534 51.7135 71.8647 51.2905 72.9869L49.6373 77.372C47.6854 72.9962 46.5847 67.151 46.0009 62.9609C44.9775 55.6155 44.6559 47.4357 45.0705 39.3053C45.1691 37.373 45.2849 35.3842 45.4432 32.9095L52.561 25.8026C53.6382 24.727 53.6382 22.977 52.561 21.9013C50.8076 20.1505 48.5938 19.1348 46.305 18.8484C46.5689 12.7633 46.4374 8.78503 45.8875 6.04284C45.7903 5.55799 46.0539 5.08236 46.5142 4.91127L53.2637 2.40548C53.5324 2.30563 53.8195 2.32438 54.0729 2.45813C54.3289 2.59313 54.5086 2.82298 54.5784 3.10501C56.1544 9.46207 55.5685 18.2441 54.8265 29.3629C54.6034 32.7062 54.3727 36.1634 54.1889 39.7694C53.9123 45.1921 53.9964 50.8501 54.4324 56.1318C54.4829 56.744 54.9962 57.2074 55.6007 57.2074C55.6331 57.2074 55.6657 57.2062 55.6984 57.2035C56.3444 57.1504 56.8249 56.5844 56.7717 55.9393C56.3444 50.7596 56.2619 45.2094 56.5332 39.8888C56.7162 36.3011 56.9464 32.8533 57.1689 29.5186C57.9243 18.1965 58.521 9.25363 56.8572 2.54204C56.6278 1.61657 56.0126 0.830783 55.1696 0.386094C54.3292 -0.0571888 53.3364 -0.12172 52.4459 0.209062L45.6964 2.71485C44.1486 3.28954 43.2611 4.88268 43.5861 6.50331C44.2281 9.70473 44.1442 14.6165 43.958 18.8085C41.546 19.0312 39.1955 20.0618 37.3527 21.9016L26.7492 32.4889L25.3777 31.1195C25.8057 29.8992 25.5362 28.4871 24.561 27.5134L22.83 25.7853C22.6458 25.6012 22.5995 25.3156 22.7152 25.0745C23.7938 22.824 24.1358 20.3304 23.704 17.8634C23.5924 17.226 22.9843 16.7991 22.3458 16.9107C21.7072 17.0221 21.2801 17.6293 21.3917 18.2668C21.739 20.2504 21.4643 22.2546 20.5977 24.0629C20.0532 25.199 20.2834 26.5573 21.1703 27.4428L22.9011 29.1707C23.2913 29.5604 23.3349 30.1665 23.0331 30.6053C23.0134 30.6295 22.9956 30.6547 22.9781 30.68C22.9541 30.7093 22.9284 30.7378 22.9011 30.765L16.8619 36.7948C16.6488 37.0076 16.3652 37.125 16.0637 37.125C15.7621 37.125 15.4786 37.0076 15.2653 36.7947L5.15785 26.7028C3.3255 24.8732 2.32756 22.4404 2.3479 19.8524C2.36824 17.2654 3.40562 14.8479 5.26848 13.0455C8.93036 9.50254 14.9027 9.48754 18.5815 13.0121C18.8592 13.278 19.1234 13.5629 19.3664 13.8583C19.7778 14.3588 20.5172 14.4313 21.0183 14.0205C21.5194 13.6097 21.5919 12.8715 21.1806 12.3711C20.8787 12.004 20.551 11.6507 20.2065 11.3205C17.9838 9.19128 15.0509 8.01987 11.9437 8.01987H11.9125C8.79422 8.02784 5.85439 9.21472 3.63488 11.3621C1.31663 13.6049 0.0257367 16.6137 0.000385214 19.8338C-0.0251228 23.0546 1.21694 26.0826 3.49779 28.36L13.6046 38.4511C13.6049 38.4514 13.6051 38.4516 13.6054 38.4519L17.1909 42.032L3.49779 55.7041C1.21694 57.9815 -0.0249663 61.0095 0.000385214 64.2303C0.0258932 67.4503 1.31663 70.459 3.63488 72.702C5.85439 74.8492 8.79422 76.0362 11.9125 76.0442H11.9437C15.0506 76.0442 17.984 74.8728 20.2065 72.7436C23.9367 69.17 24.9448 63.6428 22.715 58.9902C22.5995 58.749 22.6457 58.4632 22.8299 58.2791L24.5606 56.551C25.5359 55.5771 25.8055 54.1651 25.3774 52.9449L26.7489 51.5755L37.3525 62.1628C39.1506 63.9582 41.4716 65.0368 43.9733 65.2615C44.6554 69.4939 45.8069 74.7273 47.6867 78.7497C48.045 79.5163 48.81 80.0002 49.6519 80.0002C49.6799 80.0002 49.7079 79.9997 49.7361 79.9986C50.6109 79.9652 51.3756 79.415 51.6841 78.5966L53.4793 73.8342L57.3431 74.8711C58.118 75.0786 58.931 74.8366 59.4651 74.2381C59.9976 73.6415 60.1454 72.8092 59.8504 72.0667ZM18.5215 38.452L23.9614 33.0204L25.0888 34.1461L18.8506 40.3749L17.5884 39.1145C17.9294 38.9478 18.2453 38.7277 18.5215 38.452ZM22.9009 54.8937L21.17 56.6218C20.2833 57.5073 20.0531 58.8654 20.5975 60.0016C22.389 63.7398 21.5787 68.1807 18.5813 71.0523C14.9025 74.5767 8.93052 74.5617 5.26848 71.0187C3.40562 69.2165 2.36824 66.799 2.3479 64.2118C2.3274 61.6242 3.32534 59.191 5.15785 57.3615L15.2653 47.2694C15.7055 46.8297 16.4219 46.8299 16.8619 47.2694L22.9011 53.2993C23.3411 53.739 23.3411 54.4543 22.9009 54.8937ZM39.0122 60.5052L28.4087 49.918L34.6469 43.6894L42.6588 51.689C42.815 55.534 43.1372 59.2876 43.6195 62.8567C41.8821 62.5813 40.2803 61.7717 39.0122 60.5052ZM42.564 48.2797L36.3067 42.0322L42.9359 35.4131C42.8553 36.7598 42.7874 37.9841 42.7261 39.1862C42.5713 42.2247 42.5184 45.2705 42.564 48.2797ZM23.9614 51.044L18.5215 45.6124C18.2419 45.3331 17.9247 45.1147 17.5876 44.9508L19.6799 42.8617C19.6802 42.8614 19.6803 42.8613 19.6806 42.861C19.681 42.8606 19.6811 42.8605 19.6814 42.8602L39.0122 23.559C42.2901 20.2865 47.6236 20.2865 50.9013 23.559C51.0633 23.7206 51.0633 23.9838 50.9013 24.1454L23.9614 51.044Z" fill="#38BDA5"/>
<path d="M26.7492 38.4942C24.7954 38.4942 23.2057 40.0812 23.2057 42.0322C23.2057 43.9829 24.7952 45.5701 26.7492 45.5701C28.7029 45.5701 30.2926 43.9831 30.2926 42.0322C30.2924 40.0812 28.7029 38.4942 26.7492 38.4942ZM26.7492 43.2264C26.0897 43.2264 25.5531 42.6906 25.5531 42.0322C25.5531 41.3737 26.0896 40.8379 26.7492 40.8379C27.4086 40.8379 27.9452 41.3737 27.9452 42.0322C27.9451 42.6906 27.4086 43.2264 26.7492 43.2264Z" fill="#38BDA5"/>
<path d="M8.23164 60.4312C7.24058 61.4209 6.69474 62.7365 6.69474 64.136C6.69474 65.5354 7.24058 66.8512 8.23164 67.8407C9.22269 68.8303 10.5405 69.3753 11.942 69.3753C13.3436 69.3753 14.6614 68.8303 15.6524 67.8406C17.6982 65.7979 17.6982 62.4738 15.6524 60.431C13.6068 58.3884 10.2776 58.3884 8.23164 60.4312ZM13.9928 66.1832C13.445 66.7303 12.7168 67.0315 11.9422 67.0315C11.1676 67.0315 10.4394 66.7303 9.89153 66.1832C9.34381 65.6365 9.04226 64.9095 9.04226 64.1359C9.04226 63.3623 9.34381 62.6354 9.89153 62.0885C11.0222 60.9595 12.8619 60.9596 13.9927 62.0884C15.1233 63.2174 15.1233 65.0543 13.9928 66.1832Z" fill="#38BDA5"/>
</svg>
