<svg width="18" height="16" viewBox="0 0 18 16" fill="none" xmlns="http://www.w3.org/2000/svg">
<path d="M14.833 4.66667H3.16629C1.78296 4.66667 0.66629 5.78333 0.66629 7.16667V12.1667H3.99962V15.5H13.9996V12.1667H17.333V7.16667C17.333 5.78333 16.2163 4.66667 14.833 4.66667ZM12.333 13.8333H5.66629V9.66667H12.333V13.8333ZM14.833 8C14.3746 8 13.9996 7.625 13.9996 7.16667C13.9996 6.70833 14.3746 6.33333 14.833 6.33333C15.2913 6.33333 15.6663 6.70833 15.6663 7.16667C15.6663 7.625 15.2913 8 14.833 8ZM13.9996 0.5H3.99962V3.83333H13.9996V0.5Z" fill="#595959"/>
</svg>
