<svg width="18" height="16" viewBox="0 0 18 16" fill="none" xmlns="http://www.w3.org/2000/svg">
<path d="M14.8327 4.66667H3.16602C1.78268 4.66667 0.666016 5.78333 0.666016 7.16667V12.1667H3.99935V15.5H13.9993V12.1667H17.3327V7.16667C17.3327 5.78333 16.216 4.66667 14.8327 4.66667ZM12.3327 13.8333H5.66602V9.66667H12.3327V13.8333ZM14.8327 8C14.3743 8 13.9993 7.625 13.9993 7.16667C13.9993 6.70833 14.3743 6.33333 14.8327 6.33333C15.291 6.33333 15.666 6.70833 15.666 7.16667C15.666 7.625 15.291 8 14.8327 8ZM13.9993 0.5H3.99935V3.83333H13.9993V0.5Z" fill="#E0E0E0"/>
</svg>
