<svg width="80" height="80" viewBox="0 0 80 80" fill="none" xmlns="http://www.w3.org/2000/svg">
<path d="M79.9641 1.16651C79.9556 1.07251 79.937 0.979609 79.9088 0.88955C79.873 0.801856 79.8278 0.718264 79.7741 0.640507C79.7491 0.585147 79.72 0.531679 79.6875 0.48042C79.675 0.465279 79.6566 0.459443 79.6434 0.444933C79.5767 0.378216 79.5033 0.318755 79.4241 0.267811C79.3625 0.217183 79.2966 0.17239 79.2272 0.133906C79.1534 0.105043 79.077 0.0828038 78.9994 0.0678203C78.9098 0.039115 78.8175 0.0203461 78.7241 0.0116714C78.7041 0.010725 78.687 0 78.6667 0C78.6056 0.00772836 78.5453 0.0200306 78.4861 0.0367491C78.3941 0.0452661 78.3033 0.0637195 78.2153 0.0919517C78.1281 0.12807 78.0456 0.173494 77.9686 0.227592C77.9131 0.252985 77.8597 0.282479 77.8084 0.315601L0.826874 65.5171L0.467499 65.8267C0.453437 65.8387 0.44828 65.856 0.434999 65.8685C0.369531 65.9364 0.311562 66.0112 0.261875 66.0916C0.211718 66.1538 0.167344 66.2202 0.129062 66.2904C0.102031 66.3636 0.08125 66.4389 0.0670313 66.5158C0.0379688 66.6079 0.0190626 66.703 0.0104689 66.7992C0.00937511 66.8173 1.30213e-07 66.8323 1.30213e-07 66.8506V78.654C-0.000156119 79.0109 0.140312 79.3533 0.390468 79.6059C0.640468 79.8582 0.979686 80 1.33344 80H78.6666C79.0202 80.0002 79.3594 79.8584 79.6095 79.6059C79.8595 79.3535 80 79.0111 80 78.654V1.34615C79.9922 1.28543 79.9803 1.2255 79.9641 1.16651ZM77.3331 77.3082H2.66671V73.2705H77.3333L77.3331 77.3082ZM77.3331 70.5787H9.38217L12.5603 67.8868H77.3333L77.3331 70.5787ZM15.7379 65.1952L38.6666 45.7735V65.1952H15.7379ZM41.3332 65.1952V43.5147L43.2965 41.8519L43.9999 42.5621V65.1952H41.3332ZM71.9999 63.2085V65.1952H70.1925L45.3466 40.1152L47.3996 38.3765L71.9999 63.2085ZM49.4498 36.6397L71.9999 17.5388V59.4022L49.4498 36.6397ZM66.4217 65.1952H46.6666V45.2538L66.4217 65.1952ZM77.3331 65.1952H74.6664V15.2799L77.3331 13.0212V65.1952ZM77.3331 9.50667L39.0634 41.924L39.0552 41.9309L11.1354 65.5811L11.1203 65.594L5.23577 70.5787H2.66671V67.4785L77.3331 4.23277V9.50667Z" fill="#38BDA5"/>
</svg>
