<svg width="74" height="80" viewBox="0 0 74 80" fill="none" xmlns="http://www.w3.org/2000/svg">
<path d="M72.6788 72.0001H68.7145V7.78502C70.279 7.25517 71.3574 5.79532 71.3574 4.00001C71.3574 1.73328 69.6396 0 67.3931 0H6.60706C4.36057 0 2.64276 1.73328 2.64276 4.00001C2.64276 5.77532 3.7777 7.2233 5.28568 7.76767V72.0001H1.32138C0.528522 72.0001 0 72.5334 0 73.3334C0 74.1334 0.528522 74.6667 1.32138 74.6667H2.64276V76C2.64276 78.2667 4.36057 80 6.60706 80H67.3929C69.6394 80 71.3572 78.2667 71.3572 76V74.6667H72.6786C73.4715 74.6667 74 74.1334 74 73.3334C74 72.5334 73.4716 72.0001 72.6788 72.0001ZM6.60706 2.66672H67.3929C68.1858 2.66672 68.7143 3.20001 68.7143 4.00001C68.7143 4.80001 68.1858 5.33329 67.3929 5.33329H6.60706C5.8142 5.33329 5.28568 4.66657 5.28568 4.00001C5.28568 3.33344 5.94645 2.66672 6.60706 2.66672ZM7.9286 8.00002H66.0717V72.0001H63.4288V12C63.4288 11.2 62.9003 10.6667 62.1074 10.6667H11.8929C11.1 10.6667 10.5715 11.2 10.5715 12V72.0001H7.9286V8.00002ZM60.7859 49.3334H13.2143V13.3333H60.7859V49.3334ZM13.2143 52.0001H60.7859V72.0001H13.2143V52.0001ZM68.7145 76.0002C68.7145 76.8002 68.186 77.3334 67.3931 77.3334H6.60706C5.8142 77.3334 5.28568 76.8002 5.28568 76.0002V74.6669H68.7143L68.7145 76.0002Z" fill="#38BDA5"/>
<path d="M17.1786 22.6668C17.575 22.6668 17.8393 22.5335 18.1035 22.2668L22.0678 18.2668C22.5964 17.7335 22.5964 16.9335 22.0678 16.4C21.5393 15.8666 20.7464 15.8668 20.2178 16.4L16.2535 20.4C15.725 20.9333 15.725 21.7333 16.2535 22.2668C16.5178 22.5333 16.7821 22.6668 17.1786 22.6668Z" fill="#38BDA5"/>
<path d="M26.825 24.9333C27.0893 25.2001 27.3535 25.3333 27.7499 25.3333C28.1464 25.3333 28.4107 25.2001 28.6749 24.9333L35.2821 18.2666C35.8106 17.7333 35.8106 16.9333 35.2821 16.3999C34.7536 15.8664 33.9607 15.8666 33.4321 16.3999L26.8248 23.0666C26.2965 23.6 26.2965 24.4 26.825 24.9333Z" fill="#38BDA5"/>
<path d="M17.1786 36.0001C17.575 36.0001 17.8393 35.8668 18.1035 35.6001L20.7464 32.9333C21.275 32.4001 21.275 31.6001 20.7464 31.0666C20.2179 30.5332 19.4251 30.5333 18.8964 31.0666L16.2535 33.7333C15.725 34.2666 15.725 35.0666 16.2535 35.6001C16.5178 35.8668 16.7821 36.0001 17.1786 36.0001Z" fill="#38BDA5"/>
<path d="M17.1786 29.3333C17.575 29.3333 17.8393 29.2001 18.1035 28.9333L20.7464 26.2666C21.275 25.7333 21.275 24.9333 20.7464 24.3999C20.2179 23.8665 19.4251 23.8666 18.8964 24.3999L16.2535 27.0666C15.725 27.5999 15.725 28.3999 16.2535 28.9333C16.5178 29.2001 16.7821 29.3333 17.1786 29.3333Z" fill="#38BDA5"/>
<path d="M22.8607 22.2668C23.125 22.5335 23.3892 22.6668 23.7856 22.6668C24.1821 22.6668 24.4464 22.5335 24.7106 22.2668L28.6749 18.2668C29.2034 17.7335 29.2034 16.9335 28.6749 16.4C28.1464 15.8666 27.3535 15.8668 26.8248 16.4L22.8605 20.4C22.3322 20.9333 22.3322 21.7333 22.8607 22.2668Z" fill="#38BDA5"/>
<path d="M23.7858 26.6668C22.9929 26.6668 22.4644 27.2001 22.4644 28.0001C22.4644 28.8001 22.9929 29.3333 23.7858 29.3333C24.5787 29.3333 25.1072 28.8001 25.1072 28.0001C25.1072 27.2001 24.5787 26.6668 23.7858 26.6668Z" fill="#38BDA5"/>
</svg>
