<svg width="56" height="80" viewBox="0 0 56 80" fill="none" xmlns="http://www.w3.org/2000/svg">
<path d="M28 0C14.7667 0 4 10.7667 4 24V68C4 68.7373 4.59734 69.3333 5.33328 69.3333H50.6666C51.4025 69.3333 51.9998 68.7373 51.9998 68V24C52 10.7667 41.2333 0 28 0ZM49.3333 66.6667H6.66672V24C6.66672 12.2373 16.2361 2.66672 28 2.66672C39.7639 2.66672 49.3333 12.2373 49.3333 24V66.6667Z" fill="#38BDA5"/>
<path d="M28 5.33328C17.7067 5.33328 9.33328 13.7066 9.33328 24V68C9.33328 68.7373 9.93062 69.3333 10.6666 69.3333H45.3333C46.0692 69.3333 46.6666 68.7373 46.6666 68V24C46.6667 13.7067 38.2933 5.33328 28 5.33328ZM44 66.6667H12V24C12 15.1773 19.1773 8 28 8C36.8227 8 44 15.1773 44 24V66.6667Z" fill="#38BDA5"/>
<path d="M54.6667 66.6667H1.33328C0.597343 66.6667 0 67.2627 0 68V73.3333C0 74.0706 0.597343 74.6666 1.33328 74.6666H54.6666C55.4025 74.6666 55.9998 74.0706 55.9998 73.3333V68C56 67.2627 55.4027 66.6667 54.6667 66.6667ZM53.3333 72H2.66672V69.3333H53.3334L53.3333 72Z" fill="#38BDA5"/>
<path d="M53.1347 72.6333C52.8906 72.24 52.4627 72 52 72H4C3.53734 72 3.10937 72.24 2.86531 72.632C2.62266 73.0253 2.6 73.5161 2.80672 73.9294L5.47344 79.2627C5.70016 79.7147 6.16141 80 6.66672 80H49.3334C49.8388 80 50.3002 79.7147 50.5267 79.2641L53.1934 73.9308C53.4 73.5173 53.3773 73.0267 53.1347 72.6333ZM48.5094 77.3333H7.49062L6.15734 74.6666H49.8427L48.5094 77.3333Z" fill="#38BDA5"/>
<path d="M28 22.6667H10.6667C9.93078 22.6667 9.33328 23.2627 9.33328 24V68C9.33328 68.7373 9.93078 69.3333 10.6667 69.3333H28C28.7359 69.3333 29.3333 68.7373 29.3333 68V24C29.3333 23.2627 28.7359 22.6667 28 22.6667ZM26.6667 66.6667H12V25.3333H26.6667V66.6667Z" fill="#38BDA5"/>
<path d="M28 22.6667H10.6667C9.93078 22.6667 9.33328 23.2627 9.33328 24L9.33344 45.3333C9.33344 46.0706 9.93078 46.6666 10.6667 46.6666H28C28.7359 46.6666 29.3333 46.0706 29.3333 45.3333V24C29.3333 23.2627 28.7359 22.6667 28 22.6667ZM26.6667 44H12V25.3333H26.6667V44Z" fill="#38BDA5"/>
<path d="M28 44H10.6667C9.93078 44 9.33344 44.5959 9.33344 45.3333L9.33328 68C9.33328 68.7373 9.93078 69.3333 10.6667 69.3333H28C28.7359 69.3333 29.3333 68.7373 29.3333 68V45.3333C29.3333 44.5959 28.7359 44 28 44ZM26.6667 66.6667H12V46.6667H26.6667V66.6667Z" fill="#38BDA5"/>
<path d="M45.3333 22.6667H28C27.2641 22.6667 26.6667 23.2627 26.6667 24V68C26.6667 68.7373 27.2641 69.3333 28 69.3333L45.3333 69.3333C46.0692 69.3333 46.6666 68.7373 46.6666 68V24C46.6667 23.2627 46.0694 22.6667 45.3333 22.6667ZM44 66.6667H29.3333V25.3333H44V66.6667Z" fill="#38BDA5"/>
<path d="M45.3333 22.6667H28C27.2641 22.6667 26.6667 23.2627 26.6667 24V45.3333C26.6667 46.0706 27.2641 46.6666 28 46.6666H45.3333C46.0692 46.6666 46.6666 46.0706 46.6666 45.3333V24C46.6667 23.2627 46.0694 22.6667 45.3333 22.6667ZM44 44H29.3333V25.3333H44V44Z" fill="#38BDA5"/>
<path d="M45.3333 44H28C27.2641 44 26.6667 44.5959 26.6667 45.3333V68C26.6667 68.7373 27.2641 69.3333 28 69.3333L45.3333 69.3333C46.0692 69.3333 46.6666 68.7373 46.6666 68V45.3333C46.6667 44.5959 46.0694 44 45.3333 44ZM44 66.6667H29.3333V46.6667H44V66.6667Z" fill="#38BDA5"/>
<path d="M40.9427 11.0573C40.4227 10.5359 39.5773 10.5359 39.0573 11.0573L27.0573 23.0573C26.5359 23.5788 26.5359 24.4214 27.0573 24.9427C27.3173 25.2027 27.6587 25.3333 28 25.3333C28.3414 25.3333 28.6827 25.2027 28.9427 24.9427L40.9427 12.9427C41.4641 12.4214 41.4641 11.5786 40.9427 11.0573Z" fill="#38BDA5"/>
<path d="M28.9427 23.0573L16.9427 11.0573C16.4227 10.5359 15.5773 10.5359 15.0573 11.0573C14.5359 11.5786 14.5359 12.4214 15.0573 12.9427L27.0573 24.9427C27.3173 25.2027 27.6587 25.3333 28 25.3333C28.3414 25.3333 28.6827 25.2027 28.9427 24.9427C29.4641 24.4214 29.4641 23.5788 28.9427 23.0573Z" fill="#38BDA5"/>
<path d="M28 5.33328C27.2641 5.33328 26.6667 5.92922 26.6667 6.66656V24C26.6667 24.7373 27.2641 25.3333 28 25.3333C28.7359 25.3333 29.3333 24.7373 29.3333 24V6.66672C29.3333 5.92937 28.7359 5.33328 28 5.33328Z" fill="#38BDA5"/>
</svg>
