<svg width="80" height="80" viewBox="0 0 80 80" fill="none" xmlns="http://www.w3.org/2000/svg">
<path d="M40 80L0 62.299V49.379L40 67.08L80 49.379V62.299L40 80ZM1.8008 61.1115L40 78.0156L78.1992 61.1115V52.1603L40 69.0644L1.8008 52.1603V61.1115ZM40 63.5832L0 45.8822V38.4254L40 56.1264L80 38.4254V45.8822L40 63.5832ZM1.8008 44.6947L40 61.5988L78.1992 44.6947V41.2068L40 58.1108L1.8008 41.2067V44.6947ZM40 52.6386L0 34.9376V27.4808L40 45.1817L80 27.4808V34.9376L40 52.6386ZM1.8008 33.7501L40 50.6542L78.1992 33.7501V30.2622L40 47.1662L1.8008 30.2622V33.7501ZM40 41.7141L0 24.0131V17.3481L40.0793 0L80 17.3491V24.0132L40 41.7141ZM1.8008 22.8256L40 39.7297L78.1992 22.8256V18.5452L40.0778 1.97805L1.8008 18.5461V22.8256ZM40.9004 40.7291H39.0996V35.5817L0.543482 18.7814L1.25732 17.1128L40.9004 34.3868V40.7291ZM78.743 17.1141L79.4568 18.7827L40.3564 35.8202L39.6426 34.1516L78.743 17.1141ZM39.0996 57.1186H40.9004V62.591H39.0996V57.1186ZM39.0996 46.174H40.9004V51.6464H39.0996V46.174ZM39.0996 68.0722H40.9004V79.0078H39.0996V68.0722Z" fill="#38BDA5"/>
</svg>
