<svg width="80" height="80" viewBox="0 0 80 80" fill="none" xmlns="http://www.w3.org/2000/svg">
<path d="M73.2 0.737629C72.8706 0.0787792 72.0698 -0.188797 71.4103 0.140628C70.7515 0.469401 70.4839 1.27083 70.8133 1.92968C70.8198 1.94205 70.9468 2.21418 71.1186 2.6673H67.2599C67.0653 2.0065 66.8198 1.36132 66.5262 0.737629C66.1974 0.0787792 65.396 -0.188797 64.7372 0.140628C64.0783 0.469401 63.8107 1.27083 64.1395 1.92968C64.1467 1.94205 64.273 2.21418 64.4449 2.6673H60.5933C60.3987 2.0065 60.1532 1.36132 59.8596 0.737629C59.5308 0.0787792 58.7294 -0.188797 58.0706 0.140628C57.4117 0.469401 57.1441 1.27083 57.4729 1.92968C57.4801 1.94205 57.6064 2.21418 57.7782 2.6673H53.9267C53.732 2.0065 53.4866 1.36132 53.193 0.737629C52.8642 0.0787792 52.0628 -0.188797 51.4039 0.140628C50.7451 0.469401 50.4775 1.27083 50.8063 1.92968C50.8134 1.94205 50.9397 2.21418 51.1116 2.6673H47.2601C47.0654 2.0065 46.82 1.36132 46.5264 0.737629C46.1976 0.0787792 45.3962 -0.188797 44.7373 0.140628C44.0785 0.469401 43.8109 1.27083 44.1397 1.92968C44.1468 1.94205 44.2731 2.21418 44.445 2.6673H34.6664V10.6672H38.6664V80.0001H79.9994V2.6673H73.9266C73.7339 2.0065 73.491 1.36132 73.2 0.737629ZM71.8159 5.33395C71.9617 6.2148 72.019 7.10803 71.9878 8.0006H67.9995C68.0236 7.10868 67.9722 6.21676 67.8465 5.33395H71.8159ZM65.1493 5.33395C65.2951 6.2148 65.3524 7.10803 65.3212 8.0006H61.3329C61.357 7.10868 61.3056 6.21676 61.1799 5.33395H65.1493ZM58.4827 5.33395C58.6285 6.2148 58.6858 7.10803 58.6545 8.0006H54.6663C54.6904 7.10868 54.6389 6.21676 54.5133 5.33395H58.4827ZM51.816 5.33395C51.9619 6.2148 52.0192 7.10803 51.9879 8.0006H47.9997C48.0237 7.10868 47.9723 6.21676 47.8467 5.33395H51.816ZM37.3331 8.0006V5.33395H45.1494C45.2953 6.2148 45.3525 7.10803 45.3213 8.0006H37.3331ZM41.333 69.3335H77.3328V72.0002H41.333V69.3335ZM77.3328 77.3334H41.333V74.6668H77.3328V77.3334ZM77.3328 17.3339H63.9995V20.0005H77.3328V66.6669H41.333V64.0002H54.6663V61.3336H41.333V10.6672H44.9255C44.7341 11.3821 44.4704 12.0754 44.1397 12.7375C43.8109 13.397 44.0785 14.1978 44.7373 14.5272C45.3962 14.856 46.1976 14.5891 46.5264 13.9296C47.0413 12.8944 47.4235 11.7981 47.665 10.6672H51.5921C51.4007 11.3821 51.137 12.0754 50.8063 12.7375C50.4775 13.397 50.7451 14.1978 51.4039 14.5272C52.0628 14.856 52.8642 14.5891 53.193 13.9296C53.708 12.8944 54.0901 11.7981 54.3316 10.6672H58.2587C58.0673 11.3821 57.8036 12.0754 57.4729 12.7375C57.1441 13.397 57.4117 14.1978 58.0706 14.5272C58.7294 14.856 59.5308 14.5891 59.8596 13.9296C60.3746 12.8944 60.7567 11.7981 60.9983 10.6672H64.9253C64.7339 11.3821 64.4702 12.0754 64.1395 12.7375C63.8107 13.397 64.0783 14.1978 64.7372 14.5272C65.396 14.856 66.1974 14.5891 66.5262 13.9296C67.0412 12.8944 67.4234 11.7981 67.6649 10.6672H71.5919C71.4005 11.3821 71.1369 12.0754 70.8061 12.7375C70.4774 13.397 70.7449 14.1978 71.4038 14.5272C72.0626 14.856 72.8641 14.5891 73.1928 13.9296C73.7078 12.8944 74.09 11.7981 74.3315 10.6672H77.3328V17.3339ZM77.3328 5.33395V8.0006H74.6661C74.6902 7.10868 74.6388 6.21676 74.5131 5.33395H77.3328Z" fill="#38BDA5"/>
<path d="M18.6665 11.7499C16.1952 13.177 14.6705 15.8131 14.6666 18.6672V21.3339H30.6665V18.6672C30.6625 15.8131 29.1385 13.177 26.6665 11.7499V0.000677227H0V80.0001H7.99994V8.00062H18.6665V11.7499ZM17.3332 18.6672C17.3332 15.7219 19.7212 13.3339 22.6665 13.3339C25.6125 13.3339 27.9998 15.7219 27.9998 18.6672H17.3332ZM5.3333 5.33397V77.3334H2.66665V2.66732H23.9998V10.6673H21.3332V5.33397H5.3333Z" fill="#38BDA5"/>
<path d="M18.6665 30.6671H21.3332V34.6671H18.6665V30.6671Z" fill="#38BDA5"/>
<path d="M23.9998 30.6671H26.6665V34.6671H23.9998V30.6671Z" fill="#38BDA5"/>
<path d="M15.9999 37.3337H18.6666V41.3338H15.9999V37.3337Z" fill="#38BDA5"/>
<path d="M26.6666 37.3337H29.3332V41.3338H26.6666V37.3337Z" fill="#38BDA5"/>
<path d="M21.3333 37.3337H23.9999V41.3338H21.3333V37.3337Z" fill="#38BDA5"/>
<path d="M13.3332 44.0004H15.9998V48.0004H13.3332V44.0004Z" fill="#38BDA5"/>
<path d="M18.6665 44.0004H21.3332V48.0004H18.6665V44.0004Z" fill="#38BDA5"/>
<path d="M23.9998 44.0004H26.6665V48.0004H23.9998V44.0004Z" fill="#38BDA5"/>
<path d="M29.3331 44.0004H31.9998V48.0004H29.3331V44.0004Z" fill="#38BDA5"/>
<path d="M10.6666 50.667H13.3333V54.667H10.6666V50.667Z" fill="#38BDA5"/>
<path d="M31.9999 50.667H34.6665V54.667H31.9999V50.667Z" fill="#38BDA5"/>
<path d="M15.9999 50.667H18.6666V54.667H15.9999V50.667Z" fill="#38BDA5"/>
<path d="M21.3333 50.667H23.9999V54.667H21.3333V50.667Z" fill="#38BDA5"/>
<path d="M26.6666 50.667H29.3332V54.667H26.6666V50.667Z" fill="#38BDA5"/>
<path d="M21.3333 24.0005H23.9999V28.0005H21.3333V24.0005Z" fill="#38BDA5"/>
<path d="M57.333 61.3336H61.333V64.0003H57.333V61.3336Z" fill="#38BDA5"/>
<path d="M63.9996 61.3336H67.9995V64.0003H63.9996V61.3336Z" fill="#38BDA5"/>
<path d="M70.6661 61.3336H74.6661V64.0003H70.6661V61.3336Z" fill="#38BDA5"/>
<path d="M57.3331 17.334H61.3331V20.0007H57.3331V17.334Z" fill="#38BDA5"/>
<path d="M50.6664 17.334H54.6664V20.0007H50.6664V17.334Z" fill="#38BDA5"/>
<path d="M43.9998 17.334H47.9998V20.0007H43.9998V17.334Z" fill="#38BDA5"/>
</svg>
