<svg width="50" height="80" viewBox="0 0 50 80" fill="none" xmlns="http://www.w3.org/2000/svg">
<path d="M45.3125 0H4.6875C2.10327 0 0 2.10327 0 4.6875V75.3125C0 77.8967 2.10327 80 4.6875 80H45.3125C47.8967 80 50 77.8967 50 75.3125V4.6875C50 2.10327 47.8967 0 45.3125 0ZM46.875 75.3125C46.875 76.1737 46.1737 76.875 45.3125 76.875H4.6875C3.82629 76.875 3.125 76.1737 3.125 75.3125V4.6875C3.125 3.82629 3.82629 3.125 4.6875 3.125H45.3125C46.1737 3.125 46.875 3.82629 46.875 4.6875V38.4375H35.9375C35.0751 38.4375 34.375 39.1376 34.375 40C34.375 40.8624 35.0751 41.5625 35.9375 41.5625H46.875V75.3125Z" fill="#38BDA5"/>
<path d="M29.6906 41.5625C28.8275 41.5625 28.1274 40.863 28.1274 40C28.1274 39.137 28.8263 38.4375 29.6893 38.4375H29.6906C30.5536 38.4375 31.2531 39.137 31.2531 40C31.2531 40.863 30.5536 41.5625 29.6906 41.5625Z" fill="#38BDA5"/>
<path d="M39.0625 70.4688H29.6875C28.8245 70.4688 28.125 69.7693 28.125 68.9062V49.5312C28.125 48.6682 28.8245 47.9688 29.6875 47.9688H39.0625C39.9255 47.9688 40.625 48.6682 40.625 49.5312V68.9062C40.625 69.7693 39.9255 70.4688 39.0625 70.4688ZM31.25 67.3438H37.5V51.0938H31.25V67.3438Z" fill="#38BDA5"/>
<path d="M20.3125 70.4688H10.9375C10.0745 70.4688 9.375 69.7693 9.375 68.9062V49.5312C9.375 48.6682 10.0745 47.9688 10.9375 47.9688H20.3125C21.1755 47.9688 21.875 48.6682 21.875 49.5312V68.9062C21.875 69.7693 21.1755 70.4688 20.3125 70.4688ZM12.5 67.3438H18.75V51.0938H12.5V67.3438Z" fill="#38BDA5"/>
<path d="M39.0625 32.1875H29.6875C28.8245 32.1875 28.125 31.488 28.125 30.625V15.9375C28.125 12.4915 30.929 9.6875 34.375 9.6875C37.821 9.6875 40.625 12.4915 40.625 15.9375V30.625C40.625 31.488 39.9255 32.1875 39.0625 32.1875ZM31.25 29.0625H37.5V15.9375C37.5 14.2145 36.098 12.8125 34.375 12.8125C32.652 12.8125 31.25 14.2145 31.25 15.9375V29.0625Z" fill="#38BDA5"/>
<path d="M20.3125 32.1875H10.9375C10.0745 32.1875 9.375 31.488 9.375 30.625V15.9375C9.375 12.4915 12.179 9.6875 15.625 9.6875C19.071 9.6875 21.875 12.4915 21.875 15.9375V30.625C21.875 31.488 21.1755 32.1875 20.3125 32.1875ZM12.5 29.0625H18.75V15.9375C18.75 14.2145 17.348 12.8125 15.625 12.8125C13.902 12.8125 12.5 14.2145 12.5 15.9375V29.0625Z" fill="#38BDA5"/>
</svg>
