<svg width="80" height="80" viewBox="0 0 80 80" fill="none" xmlns="http://www.w3.org/2000/svg">
<path d="M63.172 0H65.5157V2.34379H63.172V0Z" fill="#38BDA5"/>
<path d="M42.0068 27.7934L43.0939 28.8798L32.63 38.3758L23.9374 38.222L0 62.1604V66.9725L13.028 80H17.84L41.7773 56.0623L41.6241 47.3695L51.1194 36.9055L52.2064 37.9925L57.7887 32.4102L47.5897 22.2104L42.0068 27.7934ZM52.2058 34.6783L51.037 33.5088L39.2639 46.4826L39.4165 55.1083L21.9019 72.6238L8.75793 59.4797L7.10022 61.1368L20.2448 74.2809L18.4607 76.065L5.31677 62.9203L3.65967 64.5774L16.7377 77.6562H13.9984L2.34375 66.0014V63.1308L24.8914 40.5829L32.5793 40.719L35.8038 43.9429L37.4609 42.2858L34.7717 39.5965L46.4905 28.9622L45.3217 27.7934L47.5891 25.5253L54.4739 32.4102L52.2058 34.6783Z" fill="#38BDA5"/>
<path d="M56.7859 22.8507C55.8435 23.0838 54.671 23.3744 53.3185 24.7269L54.9762 26.3841C55.8673 25.4923 56.521 25.3306 57.3492 25.1255C58.2916 24.8923 59.4641 24.6018 60.816 23.2493C62.1686 21.8973 62.4591 20.7248 62.6923 19.7824C62.8973 18.9541 63.0591 18.3004 63.9508 17.4087C64.8419 16.5176 65.4962 16.3558 66.3239 16.1508C67.2656 15.9176 68.4381 15.6271 69.7906 14.2751C71.1426 12.9226 71.4331 11.7501 71.6663 10.8083C71.8713 9.98001 72.0337 9.32631 72.9248 8.43519C73.8159 7.54345 74.4696 7.3817 75.2979 7.17662C76.2396 6.94347 77.4121 6.65293 78.7646 5.30098L77.1069 3.64385C76.2158 4.53498 75.5621 4.69673 74.7345 4.90181C73.7921 5.13497 72.6196 5.4255 71.2677 6.77806C69.9152 8.13001 69.6246 9.30251 69.3915 10.2449C69.1864 11.0726 69.0247 11.7263 68.1335 12.618C67.2424 13.5091 66.5881 13.6709 65.7605 13.8759C64.8187 14.1091 63.6462 14.3996 62.2937 15.7516C60.9412 17.1041 60.6506 18.2766 60.4175 19.219C60.2124 20.0467 60.0507 20.701 59.1589 21.5921C58.2678 22.4833 57.6135 22.6456 56.7859 22.8507Z" fill="#38BDA5"/>
<path d="M56.1316 16.672C58.2111 16.672 59.9023 14.9801 59.9023 12.9006C59.9023 10.8211 58.2111 9.12917 56.1316 9.12917C54.0521 9.12917 52.3602 10.8211 52.3602 12.9006C52.3602 14.9801 54.0521 16.672 56.1316 16.672ZM56.1316 11.473C56.9183 11.473 57.5586 12.1132 57.5586 12.9006C57.5586 13.688 56.9183 14.3282 56.1316 14.3282C55.3442 14.3282 54.704 13.688 54.704 12.9006C54.704 12.1132 55.3442 11.473 56.1316 11.473Z" fill="#38BDA5"/>
<path d="M76.2714 12.9274C74.2157 12.9274 72.5433 14.5998 72.5433 16.6555C72.5433 18.7118 74.2157 20.3842 76.2714 20.3842C78.3276 20.3842 80 18.7118 80 16.6555C80 14.5998 78.3276 12.9274 76.2714 12.9274ZM76.2714 18.0404C75.5084 18.0404 74.8871 17.4191 74.8871 16.6555C74.8871 15.8926 75.5084 15.2712 76.2714 15.2712C77.0349 15.2712 77.6562 15.8926 77.6562 16.6555C77.6562 17.4191 77.0349 18.0404 76.2714 18.0404Z" fill="#38BDA5"/>
<path d="M61.1957 7.35607H63.5394V9.69985H61.1957V7.35607Z" fill="#38BDA5"/>
<path d="M49.1846 3.33318H51.5283V5.67697H49.1846V3.33318Z" fill="#38BDA5"/>
<path d="M65.5157 20.5911H67.8595V22.9349H65.5157V20.5911Z" fill="#38BDA5"/>
<path d="M72.5433 24.3833H74.8871V26.7271H72.5433V24.3833Z" fill="#38BDA5"/>
<path d="M58.772 27.7543V30.0981C65.5634 30.0981 71.0883 35.6231 71.0883 42.4146V44.809H73.432V42.4146C73.432 34.331 66.8555 27.7543 58.772 27.7543Z" fill="#38BDA5"/>
<path d="M49.6045 20.9305H51.9482C51.9482 12.8475 45.3717 6.27085 37.2882 6.27085H34.8938V8.61463H37.2882C44.0796 8.61463 49.6045 14.1396 49.6045 20.9305Z" fill="#38BDA5"/>
<path d="M22.4976 45.5256L15.5334 52.4898C12.2241 55.7992 12.2235 61.1563 15.5334 64.4663C18.8434 67.7757 24.2004 67.7763 27.5104 64.4663L34.4739 57.5027C37.7759 54.2007 37.7759 48.8276 34.4739 45.5256C31.1719 42.2235 25.799 42.2235 22.4976 45.5256ZM32.8168 55.845L25.8533 62.8092C23.4595 65.2024 19.585 65.203 17.1912 62.8092C14.7974 60.4154 14.7968 56.5408 17.1912 54.1469L24.1547 47.1833C26.5424 44.795 30.4285 44.795 32.8168 47.1833C35.2045 49.5717 35.2045 53.4572 32.8168 55.845Z" fill="#38BDA5"/>
<path d="M40.3003 43.0158L38.5645 41.4411L43.3014 36.2206L45.0372 37.7954L40.3003 43.0158ZM46.087 36.6381L44.3518 35.0634L45.9265 33.3275L47.6624 34.9029L46.087 36.6381ZM48.7122 33.7456L46.9763 32.1703L48.5516 30.435L50.2875 32.0098L48.7122 33.7456Z" fill="#38BDA5"/>
<path d="M24.7479 61.7038L23.0908 60.0467L28.2959 54.8415L29.953 56.4987L24.7479 61.7038ZM31.0583 55.3939L29.4006 53.7368L30.0543 53.0831C30.2765 52.8615 30.4449 52.6015 30.556 52.3116L32.7448 53.149C32.5159 53.7484 32.168 54.2843 31.712 54.7402L31.0583 55.3939ZM30.6927 51.3051C30.6439 50.7845 30.4236 50.3145 30.0543 49.9452L31.7114 48.2881C32.4609 49.037 32.9279 50.0307 33.0261 51.0866L30.6927 51.3051Z" fill="#38BDA5"/>
</svg>
