<svg width="80" height="80" viewBox="0 0 80 80" fill="none" xmlns="http://www.w3.org/2000/svg">
<path d="M78.8281 39.0625H1.17188C0.524902 39.0625 0 39.5868 0 40.2344V50C0 50.6476 0.524902 51.1719 1.17188 51.1719C1.81885 51.1719 2.34375 50.6476 2.34375 50V46.0938H77.6562V77.6562H2.34375V55.0519C2.34375 54.4049 1.81885 53.88 1.17188 53.88C0.524902 53.88 0 54.4049 0 55.0519V78.8281C0 79.4757 0.524902 80 1.17188 80H78.8281C79.4757 80 80 79.4757 80 78.8281V40.2344C80 39.5868 79.4757 39.0625 78.8281 39.0625ZM2.34375 43.75V41.4062H77.6562V43.75H2.34375Z" fill="#38BDA5"/>
<path d="M78.8281 0H1.17188C0.524902 0 0 0.524292 0 1.17188V5.85938C0 6.50696 0.524902 7.03125 1.17188 7.03125H15.3906V14.1626C11.8976 14.4421 9.14062 17.3737 9.14062 20.9375C9.14062 21.9281 9.9469 22.7344 10.9375 22.7344H13.0475C13.0469 22.757 13.0469 22.7789 13.0469 22.8015C13.0469 24.74 14.624 26.3171 16.5625 26.3171C18.501 26.3171 20.0781 24.74 20.0781 22.8015C20.0781 22.7789 20.0775 22.757 20.0775 22.7344H22.1875C23.1781 22.7344 23.9844 21.9281 23.9844 20.9375C23.9844 17.3737 21.2274 14.4421 17.7344 14.1626V7.03125H38.8281V14.1626C35.3351 14.4421 32.5781 17.3737 32.5781 20.9375C32.5781 21.9281 33.3844 22.7344 34.375 22.7344H36.485C36.4844 22.757 36.4844 22.7789 36.4844 22.8015C36.4844 24.74 38.0615 26.3171 40 26.3171C41.9385 26.3171 43.5156 24.74 43.5156 22.8015C43.5156 22.7789 43.515 22.757 43.515 22.7344H45.625C46.6156 22.7344 47.4219 21.9281 47.4219 20.9375C47.4219 17.3737 44.6649 14.4421 41.1719 14.1626V7.03125H55C55.6476 7.03125 56.1719 6.50696 56.1719 5.85938C56.1719 5.21179 55.6476 4.6875 55 4.6875H2.34375V2.34375H77.6562V4.6875H60C59.3524 4.6875 58.8281 5.21179 58.8281 5.85938C58.8281 6.50696 59.3524 7.03125 60 7.03125H62.2656V14.1626C58.7726 14.4421 56.0156 17.3737 56.0156 20.9375C56.0156 21.9281 56.8219 22.7344 57.8125 22.7344H59.9225C59.9219 22.757 59.9219 22.7789 59.9219 22.8015C59.9219 24.74 61.499 26.3171 63.4375 26.3171C65.376 26.3171 66.9531 24.74 66.9531 22.8015C66.9531 22.7789 66.9525 22.757 66.9525 22.7344H69.0625C70.0531 22.7344 70.8594 21.9281 70.8594 20.9375C70.8594 17.3737 68.1024 14.4421 64.6094 14.1626V7.03125H78.8281C79.4757 7.03125 80 6.50696 80 5.85938V1.17188C80 0.524292 79.4757 0 78.8281 0ZM17.7344 22.8015C17.7344 23.4479 17.2089 23.9734 16.5625 23.9734C15.9161 23.9734 15.3906 23.4479 15.3906 22.8015C15.3906 22.7789 15.3912 22.7563 15.3925 22.7344H17.7325C17.7338 22.7563 17.7344 22.7789 17.7344 22.8015ZM21.6071 20.3906H18.5706C18.5571 20.3906 18.5437 20.3906 18.5297 20.3906H14.5966C14.5819 20.39 14.5679 20.39 14.5532 20.3906H11.5179C11.7883 18.1921 13.667 16.4844 15.9375 16.4844H17.1875C19.458 16.4844 21.3367 18.1921 21.6071 20.3906ZM41.1719 22.8015C41.1719 23.4479 40.6464 23.9734 40 23.9734C39.3536 23.9734 38.8281 23.4479 38.8281 22.8015C38.8281 22.7789 38.8287 22.7563 38.83 22.7344H41.17C41.1713 22.7563 41.1719 22.7789 41.1719 22.8015ZM45.0446 20.3906H42.0038C41.9928 20.3906 41.9818 20.3906 41.9708 20.3906H38.0341C38.0194 20.39 38.0054 20.39 37.9907 20.3906H34.9554C35.2252 18.1921 37.1045 16.4844 39.375 16.4844H40.625C42.8955 16.4844 44.7742 18.1921 45.0446 20.3906ZM64.6094 22.8015C64.6094 23.4479 64.0839 23.9734 63.4375 23.9734C62.7911 23.9734 62.2656 23.4479 62.2656 22.8015C62.2656 22.7789 62.2662 22.7563 62.2675 22.7344H64.6075C64.6088 22.7563 64.6094 22.7789 64.6094 22.8015ZM68.4821 20.3906H65.4413C65.4303 20.3906 65.4193 20.3906 65.4083 20.3906H61.4667C61.4557 20.3906 61.4447 20.3906 61.4337 20.3906H58.3929C58.6633 18.1921 60.5426 16.4844 62.8125 16.4844H64.0625C66.333 16.4844 68.2117 18.1921 68.4821 20.3906Z" fill="#38BDA5"/>
<path d="M37.6562 75.3125C38.3032 75.3125 38.8281 74.7882 38.8281 74.1406V49.6094C38.8281 48.9618 38.3032 48.4375 37.6562 48.4375H5.85938C5.2124 48.4375 4.6875 48.9618 4.6875 49.6094V74.1406C4.6875 74.7882 5.2124 75.3125 5.85938 75.3125H37.6562ZM7.03125 50.7812H36.4844V72.9688H7.03125V50.7812Z" fill="#38BDA5"/>
<path d="M32.9688 53.125H10.5469C9.8999 53.125 9.375 53.6493 9.375 54.2969V69.4531C9.375 70.1007 9.8999 70.625 10.5469 70.625H32.9688C33.6157 70.625 34.1406 70.1007 34.1406 69.4531V54.2969C34.1406 53.6493 33.6157 53.125 32.9688 53.125ZM31.7969 68.2812H11.7188V55.4688H31.7969V68.2812Z" fill="#38BDA5"/>
<path d="M70 75.3125H74.1406C74.7882 75.3125 75.3125 74.7882 75.3125 74.1406V49.6094C75.3125 48.9618 74.7882 48.4375 74.1406 48.4375H42.3438C41.6962 48.4375 41.1719 48.9618 41.1719 49.6094V74.1406C41.1719 74.7882 41.6962 75.3125 42.3438 75.3125H65C65.6476 75.3125 66.1719 74.7882 66.1719 74.1406C66.1719 73.493 65.6476 72.9688 65 72.9688H43.5156V50.7812H72.9688V72.9688H70C69.3524 72.9688 68.8281 73.493 68.8281 74.1406C68.8281 74.7882 69.3524 75.3125 70 75.3125Z" fill="#38BDA5"/>
<path d="M70.625 69.4531V54.2969C70.625 53.6493 70.1007 53.125 69.4531 53.125H47.0312C46.3837 53.125 45.8594 53.6493 45.8594 54.2969V69.4531C45.8594 70.1007 46.3837 70.625 47.0312 70.625H69.4531C70.1007 70.625 70.625 70.1007 70.625 69.4531ZM68.2812 68.2812H48.2031V55.4688H68.2812V68.2812Z" fill="#38BDA5"/>
</svg>
