<svg width="20" height="20" viewBox="0 0 20 20" fill="none" xmlns="http://www.w3.org/2000/svg">
<path d="M3.17851 3.95105C4.26779 3.95105 5.15082 3.06658 5.15082 1.97553C5.15082 0.884473 4.26779 0 3.17851 0C2.08924 0 1.2062 0.884473 1.2062 1.97553C1.2062 3.06658 2.08924 3.95105 3.17851 3.95105Z" fill="#38BDA5"/>
<path d="M0.978003 10.8734H1.1736V14.7918C1.1736 15.3307 1.61371 15.7714 2.15161 15.7714H4.20541C4.74332 15.7714 5.18342 15.3307 5.18342 14.7918V14.5634C5.00412 14.2204 4.89002 13.8287 4.89002 13.4205V8.29395C4.89002 7.29802 5.49312 6.43271 6.35702 6.05719V5.66535C6.35702 5.12657 5.91692 4.68575 5.37902 4.68575H0.978003C0.440101 4.68575 0 5.12657 0 5.66535V9.89396C0 10.4327 0.423801 10.8734 0.978003 10.8734Z" fill="#38BDA5"/>
<path d="M16.838 3.95105C17.9272 3.95105 18.8103 3.06658 18.8103 1.97553C18.8103 0.884473 17.9272 0 16.838 0C15.7487 0 14.8656 0.884473 14.8656 1.97553C14.8656 3.06658 15.7487 3.95105 16.838 3.95105Z" fill="#38BDA5"/>
<path d="M13.643 5.64903V6.04087C14.507 6.41638 15.11 7.28169 15.11 8.27762V13.3879C15.11 13.796 15.0122 14.1879 14.8167 14.5307V14.7593C14.8167 15.2981 15.2567 15.7389 15.7948 15.7389H17.8486C18.3865 15.7389 18.8266 15.2981 18.8266 14.7593V10.8409H19.022C19.5601 10.8409 20 10.4001 20 9.86131V5.64903C20 5.11025 19.5601 4.66943 19.022 4.66943H14.621C14.0832 4.66943 13.643 5.11008 13.643 5.64903Z" fill="#38BDA5"/>
<path d="M6.37332 8.29378V13.4204C6.37332 13.9591 6.81342 14.4 7.35132 14.4H7.72622V19.0204C7.72622 19.5592 8.16633 20 8.70423 20H11.3285C11.8664 20 12.3065 19.5592 12.3065 19.0204V14.3836H12.6814C13.2193 14.3836 13.6594 13.943 13.6594 13.404V8.29395C13.6594 7.75517 13.2193 7.31435 12.6814 7.31435H7.35132C6.79712 7.31418 6.37332 7.75517 6.37332 8.29378Z" fill="#38BDA5"/>
<path d="M10.0082 6.49801C11.2595 6.49801 12.2739 5.48196 12.2739 4.22861C12.2739 2.97525 11.2595 1.9592 10.0082 1.9592C8.75692 1.9592 7.74253 2.97525 7.74253 4.22861C7.74253 5.48196 8.75692 6.49801 10.0082 6.49801Z" fill="#38BDA5"/>
</svg>
