<svg width="20" height="20" viewBox="0 0 20 20" fill="none" xmlns="http://www.w3.org/2000/svg">
<path d="M19.4505 16.7995L14.8622 12.2108C14.1785 13.2741 13.2738 14.1784 12.2105 14.8621L16.7992 19.4508C17.5318 20.1831 18.7195 20.1831 19.4505 19.4508C20.183 18.7196 20.183 17.5319 19.4505 16.7995Z" fill="#333333"/>
<path d="M15.0009 7.5C15.0009 3.35824 11.6428 0 7.50098 0C3.35921 0 0.000976562 3.35824 0.000976562 7.5C0.000976562 11.6418 3.35921 14.9998 7.50098 14.9998C11.6428 14.9998 15.0009 11.6418 15.0009 7.5ZM7.50098 13.1248C4.39917 13.1248 1.87603 10.6019 1.87603 7.50004C1.87603 4.39823 4.39917 1.87509 7.50098 1.87509C10.6027 1.87509 13.1261 4.39823 13.1261 7.50004C13.1261 10.6019 10.6027 13.1248 7.50098 13.1248Z" fill="#333333"/>
<path d="M3.12506 7.49999H4.37491C4.37491 5.77692 5.77693 4.37502 7.49997 4.37502V3.12505C5.08795 3.12505 3.12506 5.08794 3.12506 7.49999Z" fill="#333333"/>
</svg>
