<svg width="18" height="16" viewBox="0 0 18 16" fill="none" xmlns="http://www.w3.org/2000/svg">
<path d="M13.2627 5.88409L9.67909 0.354057C9.52364 0.118019 9.26182 0 9 0C8.73818 0 8.47636 0.118019 8.32091 0.362487L4.73727 5.88409H0.818182C0.368182 5.88409 0 6.26344 0 6.72708C0 6.80295 0.00818179 6.87882 0.0327272 6.95469L2.11091 14.7692C2.29909 15.4773 2.92909 16 3.68182 16H14.3182C15.0709 16 15.7009 15.4773 15.8973 14.7692L17.9755 6.95469L18 6.72708C18 6.26344 17.6318 5.88409 17.1818 5.88409H13.2627ZM6.54545 5.88409L9 2.17492L11.4545 5.88409H6.54545ZM9 12.628C8.1 12.628 7.36364 11.8693 7.36364 10.942C7.36364 10.0148 8.1 9.25606 9 9.25606C9.9 9.25606 10.6364 10.0148 10.6364 10.942C10.6364 11.8693 9.9 12.628 9 12.628Z" fill="#38BDA5"/>
</svg>
