<svg width="94" height="100" viewBox="0 0 94 100" fill="none" xmlns="http://www.w3.org/2000/svg">
<path d="M49.7218 63.315C51.4563 63.18 53.0376 62.295 54.064 60.8833L69.6648 39.31C70.143 38.6483 70.0714 37.735 69.4915 37.155C68.9117 36.5767 67.9986 36.505 67.3371 36.9817L45.7662 52.5917C44.3599 53.615 43.4751 55.1967 43.3401 56.9317C43.2052 58.6667 43.8333 60.365 45.0614 61.5933C46.1794 62.7133 47.6873 63.3333 49.2552 63.3333C49.4102 63.3333 49.5652 63.3267 49.7218 63.315ZM46.6626 57.1917C46.7209 56.43 47.1108 55.735 47.724 55.2883L60.8821 45.7667L51.3663 58.925C50.9165 59.5433 50.2216 59.9317 49.4602 59.9917C48.702 60.0417 47.9572 59.7783 47.4157 59.2367C46.8792 58.6983 46.6026 57.9517 46.6626 57.1917Z" fill="#38BDA5"/>
<path d="M87.0452 32.6067C87.0285 32.5717 87.0285 32.535 87.0102 32.5C86.9902 32.4667 86.9585 32.4483 86.9369 32.4167C85.2523 29.5267 83.2595 26.8383 80.9968 24.4017L84.5758 20.8233L86.9319 23.18L94 16.1083L86.9319 9.03833L79.8621 16.1083L82.2198 18.4667L78.6408 22.045C76.2047 19.7817 73.5188 17.7867 70.6279 16.1017C70.5962 16.08 70.5779 16.0483 70.5446 16.0283C70.5096 16.0083 70.4729 16.01 70.4379 15.9917C65.2843 13.0217 59.4942 11.0433 53.3208 10.3183V8.33333H55.8202C58.1179 8.33333 59.9857 6.465 59.9857 4.16667C59.9857 1.86833 58.1162 0 55.8185 0H40.8225C38.5248 0 36.6569 1.86833 36.6569 4.16667C36.6569 6.465 38.5248 8.33333 40.8225 8.33333H43.3218V10.26C41.5223 10.4517 39.7261 10.745 37.9499 11.1517C37.0535 11.3567 36.492 12.2517 36.6986 13.1483C36.9035 14.045 37.7983 14.6083 38.6947 14.4C40.2276 14.0483 41.7756 13.7833 43.3268 13.605L45.1147 13.4667C45.6612 13.425 46.1644 13.395 46.6543 13.3717V16.6667C46.6543 17.5883 47.3991 18.3333 48.3205 18.3333C49.2419 18.3333 49.9867 17.5883 49.9867 16.6667V13.3833C56.2534 13.6717 62.1585 15.355 67.4087 18.125L65.7658 20.97C65.306 21.7683 65.5792 22.7867 66.3757 23.2467C66.6373 23.3983 66.9239 23.47 67.2071 23.47C67.7836 23.47 68.3435 23.1717 68.6517 22.6367L70.2896 19.7983C75.5033 23.1067 79.9321 27.5367 83.2395 32.7517L80.402 34.39C79.6072 34.85 79.3339 35.8683 79.7954 36.6667C80.1054 37.2017 80.6635 37.5 81.2401 37.5C81.5233 37.5 81.8099 37.4283 82.0715 37.2767L84.9157 35.6333C87.7233 40.96 89.4112 46.9633 89.6628 53.3317H86.372C85.4506 53.3317 84.7058 54.0767 84.7058 54.9983C84.7058 55.92 85.4506 56.665 86.372 56.665H89.6628C89.4112 63.0333 87.7233 69.0367 84.9157 74.3633L82.0715 72.72C81.2751 72.26 80.2553 72.53 79.7954 73.33C79.3356 74.1283 79.6088 75.1467 80.4053 75.6067L83.2429 77.245C79.9354 82.46 75.5066 86.89 70.293 90.1983L68.6551 87.36C68.1935 86.56 67.1721 86.2883 66.379 86.75C65.5809 87.21 65.3076 88.23 65.7692 89.0267L67.4121 91.8717C62.1618 94.6417 56.2567 96.325 49.99 96.6133V93.3333C49.99 92.4117 49.2452 91.6667 48.3238 91.6667C47.4024 91.6667 46.6576 92.4117 46.6576 93.3333V96.6267C43.9966 96.535 41.3273 96.2017 38.6997 95.5983C37.8033 95.3833 36.9085 95.9533 36.7036 96.85C36.497 97.7467 37.0585 98.6417 37.9549 98.8467C41.2807 99.6133 44.6781 100 48.0489 100C48.1305 100 48.2088 99.995 48.2905 99.9933C48.3022 99.9933 48.3105 100 48.3205 100C48.3338 100 48.3455 99.9917 48.3588 99.9917C56.3683 99.9367 63.883 97.7733 70.3846 94.0367C70.4363 94.0133 70.4913 94.0017 70.5412 93.9717C70.5746 93.9517 70.5929 93.92 70.6245 93.8983C77.3544 89.975 82.9779 84.3567 86.9086 77.63C86.9402 77.585 86.9802 77.55 87.0085 77.5C87.0285 77.465 87.0269 77.4283 87.0435 77.3933C90.8492 70.7933 93.0369 63.15 93.0369 55C93.0369 46.85 90.8492 39.2067 87.0452 32.6067ZM86.9302 13.7517L89.2863 16.1083L86.9302 18.4667L84.5725 16.1083L86.9302 13.7517ZM46.6543 10.035V5H40.8225C40.3643 5 39.9894 4.625 39.9894 4.16667C39.9894 3.70833 40.3643 3.33333 40.8225 3.33333H55.8185C56.2767 3.33333 56.6516 3.70833 56.6516 4.16667C56.6516 4.625 56.2767 5 55.8185 5H49.9867V10.035C49.4069 10.0117 48.8537 10 48.3205 10C48.2738 10 48.2205 10.0033 48.1739 10.0033C48.1322 10.0033 48.0905 10 48.0489 10C47.7756 10 47.5024 10.0183 47.2291 10.0233C47.0358 10.0283 46.8542 10.0267 46.6543 10.035Z" fill="#38BDA5"/>
<path d="M33.3245 23.3333H24.9934C24.0719 23.3333 23.3271 24.0783 23.3271 25C23.3271 25.9217 24.0719 26.6667 24.9934 26.6667H33.3245C34.2459 26.6667 34.9907 25.9217 34.9907 25C34.9907 24.0783 34.2459 23.3333 33.3245 23.3333Z" fill="#38BDA5"/>
<path d="M33.3245 35H16.6622C15.7408 35 14.996 35.745 14.996 36.6667C14.996 37.5883 15.7408 38.3333 16.6622 38.3333H33.3245C34.2459 38.3333 34.9907 37.5883 34.9907 36.6667C34.9907 35.745 34.2459 35 33.3245 35Z" fill="#38BDA5"/>
<path d="M33.3245 46.6667H8.33112C7.4097 46.6667 6.66489 47.4117 6.66489 48.3333C6.66489 49.255 7.4097 50 8.33112 50H33.3245C34.2459 50 34.9907 49.255 34.9907 48.3333C34.9907 47.4117 34.2459 46.6667 33.3245 46.6667Z" fill="#38BDA5"/>
<path d="M33.3245 58.3333H1.66622C0.744802 58.3333 0 59.0783 0 60C0 60.9217 0.744802 61.6667 1.66622 61.6667H33.3245C34.2459 61.6667 34.9907 60.9217 34.9907 60C34.9907 59.0783 34.2459 58.3333 33.3245 58.3333Z" fill="#38BDA5"/>
<path d="M33.3245 70H11.6636C10.7421 70 9.99734 70.745 9.99734 71.6667C9.99734 72.5883 10.7421 73.3333 11.6636 73.3333H33.3245C34.2459 73.3333 34.9907 72.5883 34.9907 71.6667C34.9907 70.745 34.2459 70 33.3245 70Z" fill="#38BDA5"/>
<path d="M33.3245 81.6667H21.6609C20.7395 81.6667 19.9947 82.4117 19.9947 83.3333C19.9947 84.255 20.7395 85 21.6609 85H33.3245C34.2459 85 34.9907 84.255 34.9907 83.3333C34.9907 82.4117 34.2459 81.6667 33.3245 81.6667Z" fill="#38BDA5"/>
</svg>
